<?xml version="1.0" encoding="UTF-8" standalone="no"?>
<!-- Created with Inkscape (http://www.inkscape.org/) -->

<svg
   version="1.1"
   id="svg1"
   width="512"
   height="512"
   viewBox="0 0 512 512"
   sodipodi:docname="1378215.svg"
   inkscape:version="1.4.2 (f4327f4, 2025-05-13)"
   xmlns:inkscape="http://www.inkscape.org/namespaces/inkscape"
   xmlns:sodipodi="http://sodipodi.sourceforge.net/DTD/sodipodi-0.dtd"
   xmlns="http://www.w3.org/2000/svg"
   xmlns:svg="http://www.w3.org/2000/svg">
  <defs
     id="defs1" />
  <sodipodi:namedview
     id="namedview1"
     pagecolor="#ffffff"
     bordercolor="#000000"
     borderopacity="0.25"
     inkscape:showpageshadow="2"
     inkscape:pageopacity="0.0"
     inkscape:pagecheckerboard="0"
     inkscape:deskcolor="#d1d1d1"
     inkscape:zoom="1.3398438"
     inkscape:cx="256"
     inkscape:cy="256"
     inkscape:window-width="1500"
     inkscape:window-height="930"
     inkscape:window-x="-6"
     inkscape:window-y="-6"
     inkscape:window-maximized="1"
     inkscape:current-layer="g1" />
  <g
     inkscape:groupmode="layer"
     inkscape:label="Image"
     id="g1">
    <path
       style="fill:#000000"
       d="m 250.03129,510.67305 c -1.1,-0.26789 -11.225,-2.94152 -22.5,-5.94141 -11.275,-2.99989 -22.23755,-5.90934 -24.36123,-6.46543 -8.58441,-2.24787 -11.56861,-11.0981 -5.71569,-16.95101 2.02824,-2.02825 3.91524,-2.92308 6.16412,-2.92308 1.78258,0 14.30469,2.96191 27.82692,6.58201 22.19454,5.94182 24.95102,6.47275 28.33992,5.45865 2.06473,-0.61785 4.4079,-2.12128 5.20706,-3.34095 0.79916,-1.21967 9.82019,-33.48856 20.04673,-71.70865 10.22654,-38.22008 18.84673,-70.34328 19.15598,-71.38489 0.51495,-1.73448 0.15018,-1.83916 -4.33537,-1.24413 -11.17952,1.48302 -24.18616,-3.34629 -32.39821,-12.02932 -6.73478,-7.12104 -10.12722,-14.72176 -10.72446,-24.02802 l -0.46878,-7.3047 -5.6185,-7.9e-4 c -10.90096,-0.002 -22.587,-8.02211 -27.33837,-18.76339 -3.1834,-7.19659 -3.42366,-14.89889 -0.7725,-24.76418 1.25787,-4.68067 2.09986,-8.69749 1.8711,-8.92626 -0.87964,-0.87963 -77.97706,-21.19458 -78.31469,-20.63569 -1.08475,1.79556 -56.572363,211.04371 -56.568573,213.32453 0.009,5.57671 4.28136,8.41811 18.433713,12.26038 7.11105,1.9306 13.99404,4.2079 15.29554,5.06068 7.74367,5.07385 3.86494,17.44472 -5.46957,17.44472 -6.45726,0 -29.399753,-6.84146 -34.509303,-10.29068 -11.0288,-7.44506 -16.19752,-21.33985 -12.66737,-34.05309 0.58703,-2.11408 0.84941,-4.06168 0.58307,-4.32802 -0.26633,-0.26633 -6.26016,-2.05167 -13.31961,-3.96742 -7.05945,-1.91575 -15.53684,-4.84792 -18.83865,-6.51593 -15.756182,-7.95976 -26.138945,-20.03076 -32.1218378,-37.34486 -2.387961,-6.9106 -2.766958,-9.56601 -2.783172,-19.5 l -0.01877,-11.5 13.2447088,-49 c 7.28459,-26.95 14.513961,-51.7 16.065271,-55 6.2731,-13.34433 17.25249,-24.32053 30.61052,-30.60163 15.15081,-7.12408 28.94441,-7.7885 49.791393,-2.39837 7.44517,1.925 13.76419,3.5 14.04227,3.5 0.27808,0 1.27218,-2.3625 2.2091,-5.25 4.96451,-15.30009 16.74604,-30.08168 29.14329,-36.56435 8.96506,-4.68794 20.19746,-7.36768 29.31395,-6.99349 7.41767,0.30446 7.5749,0.25844 14.3234,-4.19216 6.14001,-4.0493 7.23593,-5.30124 10.9423,-12.5 5.75318,-11.17421 18.12118,-23.51463 29.35817,-29.29271 23.73029,-12.20214 49.96331,-10.77978 72.2744,3.91874 7.35662,4.84654 7.44499,4.87397 15.70078,4.87397 17.39281,0 29.60805,4.97777 41.46394,16.89676 8.29191,8.33604 11.65906,13.68872 15.60748,24.81079 2.00201,5.63937 2.97902,7.22909 4.21757,6.86253 18.80589,-5.56573 26.10362,-6.96185 36.11196,-6.90854 8.52119,0.0454 12.02244,0.55168 18.57841,2.6865 18.36277,5.97945 33.91001,20.61975 40.28975,37.93947 3.01139,8.17532 2.81031,12.18786 -0.79124,15.78941 -6.04014,6.04015 -13.93776,2.64169 -17.60785,-7.57692 -7.28748,-20.29043 -28.59335,-32.49735 -49.14215,-28.15536 -15.41727,3.2577 -23.32692,5.80822 -23.32692,7.52194 0,1.87464 4.628,19.09475 5.31699,19.78374 0.24827,0.24827 4.21601,-0.51698 8.8172,-1.70056 5.74127,-1.47684 10.11091,-1.99846 13.92838,-1.66268 9.94977,0.87516 19.26524,7.24756 23.70081,16.21292 1.08844,2.2 6.59105,21.30156 12.22801,42.44792 9.27427,34.79124 10.20429,39.07106 9.77865,45 -0.54942,7.65328 -2.97672,12.95566 -8.42206,18.39782 -4.85188,4.84905 -7.27648,6.09593 -17.00481,8.74495 -4.31374,1.17463 -7.98146,2.26054 -8.15048,2.41314 -0.7704,0.69555 5.31704,21.49617 6.291,21.49617 3.68861,0 26.90192,-7.61391 31.3784,-10.29204 14.62281,-8.74835 23.34272,-27.61826 20.32666,-43.98697 -1.85044,-10.04271 -1.58278,-12.4808 1.73433,-15.79791 3.92504,-3.92505 8.86725,-3.99044 13.08072,-0.17308 5.41068,4.90201 7.49094,21.44011 4.49685,35.75 -2.49725,11.93528 -8.56005,22.78299 -17.93112,32.08277 -9.88644,9.81124 -16.4595,13.28753 -34.88383,18.44899 -12.49317,3.49988 -13.16815,3.81927 -12.85151,6.08107 0.18381,1.31294 0.4025,6.21217 0.48597,10.88717 0.13278,7.43574 -0.18105,9.13398 -2.50651,13.56346 -2.77678,5.28916 -8.65478,11.26879 -13.58187,13.81668 -1.58824,0.82131 -31.65262,9.18943 -66.80974,18.59583 -35.15712,9.4064 -66.21158,17.75124 -69.0099,18.54409 l -5.08786,1.44154 -3.30704,12.62313 c -3.69074,14.08769 -6.845,19.82153 -13.81137,25.10637 -6.67979,5.06744 -17.13629,7.43328 -24.70587,5.58983 z m 107.7945,-81.81797 c 32.01303,-8.54538 60.37885,-16.24345 63.03516,-17.10683 5.01474,-1.62994 8.62772,-5.725 8.69585,-9.85613 0.0268,-1.62786 -55.84574,-212.31254 -56.56449,-213.29375 -0.11835,-0.16156 -11.46428,2.72098 -25.21319,6.40564 l -24.99801,6.69939 7.2063,7.11335 c 14.03099,13.85003 20.07235,33.35363 16.46097,53.14171 -0.5956,3.26351 -11.6206,45.27011 -24.5,93.34799 -12.8794,48.07788 -23.41709,87.79038 -23.41709,88.25 0,0.45962 0.24503,0.83567 0.5445,0.83567 0.29948,0 26.73698,-6.99167 58.75,-15.53704 z M 80.000007,395.00955 c 1.46638,-5.43541 2.2983,-10.20363 1.84871,-10.59605 -0.44959,-0.39242 -4.46979,-1.72817 -8.93379,-2.96833 -10.77892,-2.99454 -16.76229,-7.50532 -21.11897,-15.92129 -5.16578,-9.97896 -4.88261,-12.31659 6.78397,-56.00346 5.52676,-20.69556 11.18036,-39.98162 12.56357,-42.85789 4.00262,-8.32317 13.04313,-14.52299 23.02052,-15.78706 3.53729,-0.44816 7.376073,0.0433 14.048613,1.79847 l 9.18133,2.41513 2.12301,-8.09848 c 1.16766,-4.45416 2.53225,-9.35635 3.03243,-10.89376 0.64771,-1.99084 0.56012,-2.91101 -0.30434,-3.1974 -0.66757,-0.22116 -6.61377,-1.8291 -13.21377,-3.57319 -10.400373,-2.74835 -13.156253,-3.10594 -20.673853,-2.68248 -6.93404,0.39058 -9.99462,1.10664 -15.25853,3.56992 -8.20215,3.83825 -16.38476,11.46455 -20.33793,18.95524 -3.2782,6.21169 -28.002737,96.55587 -28.933329,105.7232 -1.52749,15.04744 6.936849,31.66588 20.591329,40.42793 4.76838,3.05986 31.03296,11.3542 32.2636,10.18882 0.35821,-0.33921 1.85105,-5.0639 3.31743,-10.49932 z m 20.175823,-75.36743 c 6.61215,-24.6125 11.91113,-44.89847 11.77551,-45.07993 -0.13561,-0.18146 -3.62651,-1.19578 -7.75754,-2.25406 -8.106043,-2.07657 -10.746363,-1.71787 -14.007573,1.90301 -1.9569,2.17272 -21.62947,73.43923 -21.64591,78.4152 -0.0139,4.21943 4.57806,8.4558 10.99097,10.13979 3.025,0.79434 6.20255,1.48515 7.06123,1.53513 1.22732,0.0714 4.13242,-9.47993 13.583313,-44.65914 z m 341.08373,5.1219 c 5.88595,-1.69002 9.27173,-5.12669 9.27173,-9.41109 0,-3.38343 -18.68738,-73.41923 -20.56428,-77.06996 -0.73777,-1.43503 -2.76618,-3.1993 -4.50757,-3.92061 -2.71349,-1.12396 -4.22146,-1.04868 -10.54716,0.52653 -4.05954,1.01089 -7.40333,2.32517 -7.43063,2.92061 -0.0273,0.59544 5.25749,21.01635 11.744,45.37979 l 11.79365,44.29716 2.50599,-0.61062 c 1.3783,-0.33584 4.85872,-1.28615 7.73427,-2.11181 z m -136.38021,-4.74268 c 2.14264,-1.1736 4.87556,-3.88525 6.16648,-6.11847 1.27514,-2.20591 5.3841,-15.26075 9.13102,-29.01075 6.12933,-22.49264 6.80718,-25.90265 6.75861,-34 -0.0692,-11.53594 -2.58901,-18.35275 -9.63299,-26.05999 -5.0001,-5.4709 -10.5273,-8.95441 -18.09857,-11.40659 -3.84369,-1.24489 -7.66112,-5.79913 -7.66887,-9.14906 -0.002,-0.88861 -1.56158,-4.72959 -3.46562,-8.53553 -5.71539,-11.4244 -17.48293,-21.65542 -29.03812,-25.24653 -9.45026,-2.93694 -16.99987,-3.44578 -25.32825,-1.70713 -9.88345,2.06329 -16.41336,5.22053 -24.17175,11.68711 -6.39699,5.33186 -6.58716,5.41121 -12,5.00663 -14.30433,-1.06917 -19.42128,-0.54824 -26.31853,2.67937 -6.79638,3.18041 -14.50153,10.04929 -17.26298,15.38935 -1.182,2.28573 -1.22389,2.96954 -0.20346,3.32147 0.70673,0.24374 20.85997,5.67006 44.78497,12.05849 44.94136,12.00019 47.11862,12.81459 48.45093,18.12292 0.37091,1.47783 -0.80076,7.87202 -2.91539,15.91018 -1.94455,7.39163 -3.53554,14.35942 -3.53554,15.48398 0,3.33793 2.82686,7.80444 5.96727,9.4284 4.94753,2.55847 9.59528,1.9609 13.47936,-1.73307 2.98641,-2.84024 3.86963,-4.95207 7.00526,-16.75 4.12084,-15.50476 5.8787,-18 12.6808,-18 5.00735,0 9.87014,4.27645 9.86222,8.67308 -0.003,1.5548 -2.92325,13.62692 -6.48989,26.82692 -3.56664,13.2 -6.47946,25.575 -6.47295,27.5 0.0275,8.10535 6.48528,16.03177 14.53222,17.83702 4.94713,1.10984 8.87556,0.48061 13.78377,-2.2078 z M 336.1101,177.3709 c 16.38832,-4.41166 29.98078,-8.20504 30.20546,-8.42972 0.74296,-0.74296 -5.60072,-9.18072 -9.42996,-12.54283 -2.06968,-1.8172 -6.25858,-4.4745 -9.30868,-5.90512 -5.11824,-2.40065 -6.58987,-2.60111 -19.09539,-2.60111 h -13.54975 l -5.30776,-4.64038 C 290.3256,126.37982 261.50035,126.32391 242.5831,143.12169 l -4.44818,3.94982 8.44818,0.70123 c 24.04742,1.99602 42.71672,12.74656 55.45654,31.93411 2.07615,3.1269 3.88702,5.68527 4.02416,5.68527 0.13714,0 13.65798,-3.60955 30.0463,-8.02122 z M 154.31979,483.49446 c -2.68376,-2.39795 -3.24305,-3.62279 -3.24305,-7.10234 0,-3.47955 0.55929,-4.70439 3.24305,-7.10234 3.61807,-3.23274 6.88299,-3.63602 11.23152,-1.38731 5.89745,3.04969 6.9101,10.71338 2.0569,15.56657 -3.98266,3.98267 -8.84907,3.99198 -13.28842,0.0254 z M 488.81542,271.67853 c -3.44736,-0.64808 -7.28413,-5.88379 -7.28413,-9.94006 0,-7.77324 10.02807,-12.25851 16.32796,-7.30302 3.0275,2.38143 4.42251,8.01416 2.84322,11.48031 -1.80559,3.96285 -7.2979,6.62549 -11.88705,5.76277 z M 33.863737,196.60234 c -9.098005,-3.25195 -15.8557,-9.77321 -18.812834,-18.15462 -1.966875,-5.57472 -1.941147,-15.4622 0.05548,-21.32199 2.071288,-6.0789 8.427829,-13.1721 14.801554,-16.51691 4.39321,-2.30548 6.33468,-2.68864 13.62334,-2.68864 7.26512,0 9.23563,0.3862 13.56346,2.65829 5.26612,2.76468 11.26688,8.65109 13.78681,13.52409 3.99429,7.72411 3.824,19.16668 -0.41557,27.92447 -6.05223,12.50224 -23.24649,19.34913 -36.60224,14.57531 z m 14.68756,-19.72057 c 3.71994,-1.92365 4.97999,-4.31962 4.97999,-9.46936 0,-3.01283 -0.64491,-4.7561 -2.41388,-6.52508 -6.79744,-6.79743 -17.61242,-2.66615 -17.56389,6.70934 0.044,8.50067 7.54022,13.14156 14.99778,9.2851 z m 69.479993,-33.62632 c -12.1,-3.27467 -23.125003,-6.76417 -24.500003,-7.75446 -1.37682,-0.99159 -2.92693,-3.48621 -3.45027,-5.55254 -1.21607,-4.80151 0.6202,-8.38929 5.52721,-10.7993 3.54442,-1.74079 3.57741,-1.7355 26.485953,4.24766 12.61541,3.29484 24.37927,6.6497 26.14192,7.45524 4.63928,2.12018 6.82759,6.81971 5.39776,11.59206 -1.36993,4.57241 -4.81345,6.97743 -9.81739,6.85664 -2.08185,-0.0503 -13.68518,-2.77063 -25.78518,-6.0453 z m 282.50539,-14.53132 c -9.06066,-3.17004 -15.80832,-9.24149 -20.81001,-18.72457 -2.40481,-4.55945 -2.69392,-6.18037 -2.69461,-15.107437 -9.3e-4,-12.066147 1.78036,-16.744921 9.47096,-24.876596 7.31834,-7.738067 15.02877,-11.062444 25.52827,-11.006605 10.10086,0.05372 17.5032,2.782384 24.42106,9.002134 9.84886,8.854977 13.95098,22.464273 10.6692,35.396424 -4.16096,16.39665 -17.74664,26.96707 -34.59026,26.91317 -4.18488,-0.0134 -9.48669,-0.71908 -11.99461,-1.59652 z m 20.00478,-20.58201 c 7.57789,-5.15746 9.76529,-12.450928 6.04133,-20.143603 -4.02299,-8.310388 -13.08153,-11.501458 -21.04343,-7.413008 -12.54859,6.443723 -11.97829,23.108961 0.99193,28.986321 3.44385,1.56056 10.70534,0.81954 14.01017,-1.42971 z m -245.39341,17 c -1.37211,-1.2375 -7.92221,-11.67357 -14.55576,-23.19127 -12.29601,-21.349313 -13.59224,-24.82907 -11.03136,-29.614118 0.56631,-1.058149 2.42098,-2.643391 4.12149,-3.522759 4.40859,-2.279771 9.20979,-1.149279 12.18842,2.869888 3.82909,5.166723 24.53042,41.341999 25.21199,44.057579 0.83092,3.31065 -1.99095,9.07423 -5.14678,10.51212 -3.90105,1.77744 -8.05994,1.34896 -10.788,-1.11144 z m 37.30635,-21.52739 c -2.30572,-2.06016 -3.12485,-3.674157 -3.17197,-6.250001 -0.0349,-1.909933 2.79693,-14.040152 6.29303,-26.956042 7.16962,-26.487232 8.01383,-28.016564 15.46549,-28.016564 5.67751,0 9.49034,3.643161 9.49034,9.068014 0,3.782203 -11.08782,46.359036 -13.0063,49.943763 -2.95857,5.52812 -10.17334,6.58652 -15.07059,2.21083 z M 43.261487,69.031275 c -7.16451,-3.019851 -12.00797,-6.659452 -15.76607,-11.847368 -9.020795,-12.452841 -9.302092,-29.931783 -0.67695,-42.063233 16.13353,-22.6921499 49.63106,-19.9216549 61.96132,5.124663 2.89373,5.878 3.24854,7.528989 3.24993,15.122578 10e-4,7.464083 -0.38329,9.332589 -3.09298,15.024208 -3.76129,7.900466 -9.70662,14.021743 -17.16095,17.668805 -8.13408,3.979637 -20.38571,4.396562 -28.5143,0.970347 z m 20.26776,-19.138101 c 11.46941,-5.931059 11.47059,-22.416787 0.002,-28.315618 -7.87079,-4.048323 -17.45365,-1.010213 -21.50105,6.8166 -6.68274,12.922982 8.57603,28.181752 21.49901,21.499018 z M 310.03129,62.520203 c -9.35678,-2.445674 -16.38077,-8.109166 -20.5431,-16.564059 -5.99935,-12.186414 -3.65388,-25.761892 6.10185,-35.317216 6.18769,-6.0605839 13.35394,-8.5628009 22.94125,-8.0103319 8.647,0.498284 13.53081,2.618234 19.3872,8.4155429 15.21971,15.066168 9.97668,41.566847 -9.849,49.781396 -4.68526,1.941283 -13.81364,2.798884 -18.0382,1.694668 z m 13.71382,-22.832936 c 4.01609,-3.847657 3.95482,-10.280353 -0.1369,-14.372067 -6.54151,-6.541516 -17.07692,-2.029903 -17.07692,7.312909 0,3.501069 0.55676,4.9086 2.75,6.952163 1.5125,1.409283 3.425,2.824646 4.25,3.145253 2.72416,1.058647 7.38457,-0.327663 10.21382,-3.038258 z"
       id="path1" />
  </g>
</svg>
