<?xml version="1.0" encoding="UTF-8" standalone="no"?>
<!-- Created with Inkscape (http://www.inkscape.org/) -->

<svg
   version="1.1"
   id="svg1"
   width="682.04315"
   height="681.14374"
   viewBox="0 0 682.04315 681.14374"
   xmlns="http://www.w3.org/2000/svg"
   xmlns:svg="http://www.w3.org/2000/svg">
  <defs
     id="defs1" />
  <g
     id="g1"
     transform="translate(0.64042985,-1.9611275)">
    <path
       style="fill:#000000"
       d="M 304.98028,681.77607 C 221.02683,671.00341 144.2175,620.85964 100.30177,548.15491 44.39368,455.59624 47.51156,337.87487 108.25525,247.85663 c 14.12568,-20.93335 37.15279,-45.88983 57.26281,-62.06067 27.32709,-21.97423 62.40326,-40.01824 98.33334,-50.585 l 9.66666,-2.8429 v -17.82011 c 0,-14.579126 0.48694,-19.121566 2.67734,-24.975932 6.14896,-16.434578 19.07835,-25.093993 38.88154,-26.040796 L 326.8514,62.968278 V 37.084459 c 0,-28.8669432 0.57634,-31.1199482 8.64163,-33.781735 5.60212,-1.8488663 10.25059,-0.6918472 14.23193,3.5423748 3.02816,3.2204952 3.14001,4.1550292 3.55795,29.7287932 l 0.43151,26.403774 11.56849,0.558419 c 18.2427,0.880586 30.26032,8.503881 37.28664,23.652519 2.94477,6.348868 3.43081,9.540447 3.99822,26.254146 l 0.64594,19.02667 18.81885,6.10328 c 94.25856,30.56973 164.37456,107.65829 186.81131,205.38844 5.74357,25.0179 7.92462,68.73925 4.65595,93.33334 -5.53451,41.64272 -18.25186,78.17865 -39.13833,112.44134 -43.67471,71.6451 -118.89113,120.70034 -201.71791,131.55798 -16.66075,2.18403 -56.32112,2.45093 -71.6633,0.48227 z m 43.62653,-30.81492 c 11.40963,-14.0535 23.18913,-46.76823 30.36469,-84.3307 1.40061,-7.33188 2.54657,-13.78188 2.54657,-14.33333 0,-0.55145 -18.94044,-1.00264 -42.08985,-1.00264 -39.45144,0 -42.04794,0.14627 -41.42113,2.33333 0.3678,1.28334 1.65729,7.43334 2.86554,13.66667 7.62565,39.34055 19.36754,71.34115 30.83409,84.03325 6.57906,7.28223 10.76393,7.19145 16.90009,-0.36658 z m 39.96438,-5.18767 c 22.53984,-11.46091 46.19469,-34.85705 62.78094,-62.09434 6.64,-10.90394 16.83261,-30.08991 16.83261,-31.68471 0,-0.38497 -13.35,-0.69735 -29.66667,-0.69418 l -29.66667,0.006 -4.30343,21.81815 c -4.71013,23.88006 -11.40138,47.42369 -18.33235,64.50365 -2.45506,6.05 -4.19245,11 -3.86086,11 0.33158,0 3.12897,-1.28446 6.21643,-2.85434 z m -93.24646,-3.479 c -7.46285,-16.73941 -16.96249,-50.87465 -23.19119,-83.33333 l -1.4712,-7.66667 h -29.90547 c -16.44801,0 -29.90547,0.22373 -29.90547,0.49718 0,1.68003 6.63957,14.96586 12.09474,24.20165 13.36787,22.63228 31.52112,43.90884 48.16986,56.4576 7.17146,5.40539 23.20243,14.74731 25.41996,14.81329 0.55984,0.0166 0.0148,-2.21972 -1.21123,-4.96972 z m -65.95575,-12 c -0.99491,-1.28333 -4.29276,-5.33333 -7.32855,-9 -10.36209,-12.51546 -23.00911,-32.75004 -32.10377,-51.36435 l -9.08526,-18.59509 -23.00001,-0.0203 c -12.65,-0.0111 -22.99636,0.42972 -22.99192,0.97972 0.004,0.55 5.14421,7.1511 11.42171,14.66911 18.7894,22.50246 43.84348,43.10594 71.06685,58.44258 7.05036,3.9719 13.04632,7.22165 13.32436,7.22165 0.27804,0 -0.30849,-1.05 -1.30341,-2.33334 z m 229.18711,-2.86308 c 10.55989,-5.34743 29.64491,-18.08636 41.88256,-27.9559 11.28951,-9.10488 33.90858,-32.38885 40.82894,-42.02913 l 4.41618,-6.15189 h -24.12096 -24.12097 l -3.57769,8.33333 c -8.99046,20.94099 -25.21737,48.18324 -38.12177,64.00001 -3.44025,4.21666 -5.93098,7.66666 -5.53496,7.66666 0.39601,0 4.15292,-1.73838 8.34867,-3.86308 z M 170.8514,523.94001 c 0,-0.3783 -2.04047,-8.6283 -4.53438,-18.33334 -6.51262,-25.34386 -9.1305,-42.15992 -12.24335,-78.64553 l -0.76786,-9 H 119.9614 86.617 l 0.71585,5 c 0.39372,2.75 1.0859,8.6 1.53818,13 1.27132,12.36802 7.04859,36.98029 12.05985,51.37727 4.75854,13.67093 12.95521,32.51972 15.44769,35.52297 1.12699,1.35794 7.59493,1.76643 27.96942,1.76643 14.57687,0 26.50341,-0.30951 26.50341,-0.6878 z m 95.50736,-5.64553 c -1.94,-14.69364 -4.72115,-52.0802 -5.60398,-75.33334 l -0.94914,-25 h -39.88001 -39.88001 l 0.82719,11.66667 c 1.96672,27.73859 7.25044,57.72385 14.33179,81.33334 l 4.09913,13.66666 h 33.94561 33.94561 z m 119.73841,3.33333 c 1.976,-9.41092 5.37886,-54.62241 6.57318,-87.33333 l 0.59635,-16.33334 h -53.40993 -53.40993 l 0.94313,25.66667 c 0.8523,23.19486 3.49449,58.12958 5.6472,74.66667 l 0.82444,6.33333 h 45.80283 45.80282 z m 96.4076,-7.66666 c 8.02921,-25.9104 14.1175,-57.64063 15.79783,-82.33334 l 0.93002,-13.66667 h -39.46353 -39.46352 l -0.65663,4.33334 c -0.36114,2.38333 -1.01037,15.43333 -1.44272,29 -0.43235,13.56666 -1.34661,30.66666 -2.03168,38 -0.68507,7.33333 -1.65237,18.29401 -2.14955,24.35706 l -0.90397,11.02372 33.14246,-0.35705 33.14246,-0.35706 z m 85.87707,-0.93102 c 7.53292,-16.30497 11.34614,-26.83501 15.83788,-43.73565 3.98923,-15.00989 7.96502,-38.29949 7.96502,-46.65789 v -4.67545 H 559.02317 525.8616 l -0.92841,13.66667 c -1.68002,24.73105 -7.6702,58.60682 -14.08729,79.66667 -4.42582,14.52484 -6.63831,13.33333 24.75832,13.33333 H 563.0237 Z M 153.53182,388.96114 c 0.0841,-14.25867 6.45102,-62.76358 9.45048,-71.99587 2.99347,-9.21384 14.2904,-11.45462 21.48367,-4.26135 4.6476,4.6476 4.65276,3.21868 -0.12992,35.92389 -1.44773,9.9 -3.03774,23.55 -3.53333,30.33333 l -0.90109,12.33333 h 39.94256 39.94256 l 0.91596,-25 c 0.83404,-22.76389 3.56322,-59.66468 5.55956,-75.1698 l 0.79438,-6.16981 -12.94041,-0.56597 c -12.58677,-0.5505 -13.04505,-0.68308 -16.7693,-4.85123 -4.11871,-4.60964 -4.76413,-8.73173 -2.23596,-14.28045 2.60046,-5.70739 7.46506,-7.29607 22.34087,-7.29607 7.36975,0 13.39955,-0.23372 13.39955,-0.51938 0,-1.53303 4.5233,-24.44335 6.8735,-34.81396 3.80229,-16.77821 10.94869,-40.23236 15.71571,-51.5782 2.21466,-5.27104 3.76539,-9.84497 3.44608,-10.16429 -0.92053,-0.92052 -15.19881,7.45313 -24.92858,14.61964 -11.63014,8.56623 -29.27119,27.22574 -38.31235,40.52422 -9.27182,13.63775 -13.00235,17.61934 -17.41679,18.58892 -8.18461,1.79764 -16.92225,-6.51892 -15.39905,-14.65695 0.87717,-4.68652 12.69058,-22.35477 23.88669,-35.72518 l 7.86522,-9.39264 -13.50654,7.22557 c -22.26568,11.91144 -36.66337,22.87621 -57.55723,43.83353 -10.63333,10.66563 -21.32061,22.24205 -23.74951,25.72538 l -4.41618,6.33334 h 4.68677 c 6.7403,0 11.0456,2.39382 13.46142,7.48477 2.72574,5.74408 1.21618,11.99799 -3.80139,15.74861 -3.06518,2.29121 -6.06238,2.84393 -17.44212,3.21655 l -13.74094,0.44994 -5.4601,11.55007 c -11.73709,24.82812 -19.08086,50.39872 -22.24654,77.46123 -1.07694,9.20654 -1.95808,16.89283 -1.95808,17.08066 0,0.18783 15,0.3415 33.33334,0.3415 30.8519,0 33.33436,-0.1737 33.34709,-2.33333 z m 36.36509,-105.26835 c -3.9649,-0.76743 -9.71218,-7.80947 -9.71218,-11.90017 0,-7.57942 6.31034,-13.83148 13.96044,-13.83148 4.05811,0 10.83594,5.67909 11.91661,9.98484 1.34542,5.36057 -2.42255,12.48872 -7.78624,14.72981 -2.56951,1.07361 -4.8411,1.87031 -5.04799,1.77044 -0.20688,-0.0999 -1.70567,-0.43891 -3.33064,-0.75344 z m 202.53069,88.93502 c -0.41553,-17.64871 -3.49112,-63.52953 -5.31806,-79.33334 l -0.92481,-8 -46.33333,-0.35061 c -26.21682,-0.19839 -46.33333,0.16122 -46.33333,0.82825 0,0.64837 -0.89278,9.50615 -1.98395,19.68395 -2.40954,22.47468 -4.6681,58.3039 -4.67653,74.18705 l -0.006,11.68196 53,-0.34863 53,-0.34863 z m 105.89876,3.33857 c -1.48806,-24.8899 -7.64685,-58.08738 -15.33728,-82.67191 l -2.50253,-8 -33.90409,-0.35534 -33.90408,-0.35534 1.66582,15.02201 c 2.37679,21.43332 4.50416,55.07432 4.52541,71.56229 0.01,7.76951 0.37999,15.47638 0.82217,17.12638 l 0.80397,3 h 39.3735 39.3735 z m 93.44881,4.99476 c -1.98755,-25.51898 -10.79661,-58.1503 -22.31648,-82.66667 l -6.42175,-13.66666 h -27.56875 c -25.00687,0 -27.49076,0.20325 -26.72942,2.18727 5.62466,14.65761 13.54552,56.77806 15.63585,83.14606 0.78482,9.9 1.64433,18.75 1.91002,19.66667 0.36963,1.27526 8.21083,1.66666 33.38921,1.66666 h 32.90614 z M 381.51807,256.10791 c 0,-5.94818 -8.98003,-43.89923 -14.232,-60.14677 -7.64649,-23.65519 -20.57212,-44.66667 -27.4776,-44.66667 -6.88273,0 -19.41429,20.15458 -26.94348,43.33333 -4.2589,13.11114 -10.64808,38.35035 -12.65724,50 -0.82208,4.76667 -1.804,9.71667 -2.18204,11 -0.64437,2.18747 1.94398,2.33334 41.40251,2.33334 35.04278,0 42.08985,-0.31029 42.08985,-1.85323 z m 88,0.96414 c 0,-0.489 -3.03163,-6.56297 -6.73695,-13.49771 -16.86538,-31.56457 -38.2001,-57.14595 -59.92972,-71.85866 -5.58391,-3.78076 -19.11931,-11.08788 -20.53872,-11.08788 -0.34505,0 1.06347,3.75 3.13005,8.33333 7.05778,15.65295 15.81619,46.87257 20.66659,73.66667 1.19477,6.6 2.43167,12.75 2.74868,13.66667 0.43815,1.26697 7.78104,1.66667 30.61822,1.66667 16.52302,0 30.04185,-0.40009 30.04185,-0.88909 z m 75.99192,-0.11091 c -0.0167,-2.06887 -22.8863,-28.29523 -32.24717,-36.98038 -17.18456,-15.94409 -39.57861,-31.80965 -58.26312,-41.27781 l -7.16996,-3.63329 7.98669,9.77907 c 12.27589,15.03087 23.57333,33.05219 33.86621,54.02232 l 9.37009,19.09009 h 23.23267 c 12.77797,0 23.22904,-0.45 23.22459,-1 z M 340.18473,125.29447 c 11.36667,0 25.08452,0.49301 30.48411,1.09559 l 9.81744,1.09559 -0.50981,-14.8946 c -0.50863,-14.860175 -0.51982,-14.903536 -4.83848,-18.762259 l -4.32866,-3.86766 h -30.06662 c -40.27565,0 -40.48101,0.116589 -40.52833,23.009309 l -0.0297,14.34265 9.66667,-1.00931 c 5.31667,-0.55512 18.96667,-1.00931 30.33333,-1.00931 z m -306.00001,91.4211 c -5.68719,-2.35952 -7.902501,-6.57167 -8.437695,-16.04329 l -0.5138,-9.09298 -9.125988,-0.51567 C 8.8074242,190.65116 6.3150712,189.92213 3.6521482,187.42044 -0.84607679,183.19458 -1.8437938,177.82913 0.82343021,172.20838 3.5527632,166.45673 7.5957382,164.6278 17.580793,164.6278 h 7.937262 v -8.12761 c 0,-9.08131 2.538755,-14.77856 7.616435,-17.09211 5.23248,-2.38408 9.432,-1.66391 13.97679,2.39685 3.9433,3.52335 4.34666,4.63494 4.83816,13.33334 l 0.53621,9.48953 h 8.49517 c 7.48867,0 9.00747,0.45775 12.81923,3.86355 5.81382,5.19465 6.11169,13.01549 0.70178,18.42541 -3.09288,3.09288 -4.96762,3.6983 -12.82728,4.14241 l -9.205,0.52013 -0.52013,9.205 c -0.43167,7.63952 -1.07947,9.74773 -3.80908,12.39628 -3.71081,3.60062 -9.97368,5.18702 -13.95562,3.53499 z m 547.09936,-31.46502 c -3.98231,-2.1625 -4.96899,-4.49966 -15.74248,-37.28942 -3.85513,-11.73333 -7.68752,-22.01147 -8.51643,-22.84031 -0.8289,-0.82884 -13.69059,-5.53988 -28.58154,-10.46899 -27.84542,-9.21721 -31.42316,-11.18364 -32.94376,-18.106893 -0.98867,-4.501388 2.15679,-11.18391 6.31067,-13.406999 1.61235,-0.862901 14.91727,-5.569562 29.56648,-10.459245 l 26.63495,-8.890335 9.06458,-27.246948 c 9.85369,-29.6189352 12.8705,-34.5802825 21.02693,-34.5802825 8.24079,0 10.96758,4.3963911 21.30561,34.3508915 l 9.57433,27.741657 27.60066,9.066933 c 22.25344,7.310349 28.31103,9.824017 31.26733,12.974763 4.09447,4.363765 4.62349,8.814569 1.71598,14.437068 -2.36326,4.57004 -0.56368,3.7579 -33.95918,15.32549 l -27.2432,9.43654 -7.73519,23.33333 c -4.25436,12.83333 -8.69942,25.89611 -9.87792,29.0284 -3.27758,8.71132 -11.50237,11.9198 -19.46782,7.59435 z m 11.31434,-66.43586 c 1.9965,-6.13055 4.87197,-12.28055 6.38995,-13.66667 1.51797,-1.38612 8.25814,-4.37107 14.97816,-6.633208 l 12.21821,-4.112986 -9.33333,-3.070727 c -16.21455,-5.334691 -18.79884,-7.11847 -21.74561,-15.009724 -1.44321,-3.864802 -3.39159,-9.596169 -4.32974,-12.736373 -0.93815,-3.140204 -2.13073,-5.240204 -2.65018,-4.666667 -0.51944,0.573537 -2.22053,4.942795 -3.78019,9.709462 -4.97196,15.195416 -6.22329,16.467894 -21.05252,21.40829 l -13.10843,4.367107 12.21821,4.112302 c 6.72002,2.261764 13.46019,5.246404 14.97817,6.632524 1.51797,1.38612 4.39345,7.53612 6.38994,13.66667 1.9965,6.13054 3.98265,11.14644 4.41368,11.14644 0.43103,0 2.41718,-5.0159 4.41368,-11.14644 z m -454.29818,13.66576 c -2.00702,-1.57872 -7.29042,-10.21196 -12.03569,-19.66667 l -8.45825,-16.852649 -16.29128,-8 C 92.55482,83.56113 84.08996,78.530215 82.70423,76.781319 79.70184,72.992071 79.42543,65.692801 82.12813,61.567956 83.19701,59.936645 91.80902,54.769765 101.26594,50.086 l 17.19439,-8.515938 8.52886,-17.229564 c 4.69088,-9.47626 9.64186,-18.2382705 11.00219,-19.4711339 3.28241,-2.9748544 13.10429,-2.9748544 16.3867,0 1.36032,1.2328634 6.31226,9.9968049 11.00431,19.4754249 l 8.53099,17.233855 15.93642,7.857909 c 8.76503,4.321851 17.37609,9.289728 19.13568,11.039728 3.7929,3.772233 4.31076,11.30459 1.09305,15.898515 -1.1584,1.653859 -9.85554,6.890223 -19.32697,11.636365 l -17.22079,8.629348 -8.62935,17.220781 c -4.74614,9.47143 -9.9825,18.16857 -11.63636,19.32698 -4.19094,2.93545 -10.72612,2.62634 -14.96482,-0.70782 z m 12.5035,-48.916105 c 2.65929,-4.931529 5.06757,-7.165488 11.28226,-10.465595 l 7.90127,-4.195713 -7.98111,-4.02885 c -6.86908,-3.467498 -8.5575,-5.103039 -12.11794,-11.738366 l -4.13683,-7.709517 -3.78333,7.742822 c -3.33433,6.823914 -4.72104,8.217007 -11.6846,11.738366 l -7.90127,3.995545 7.90127,4.195713 c 6.50678,3.455219 8.57179,5.446952 11.70052,11.285348 2.08959,3.899299 4.16815,6.720746 4.61901,6.269882 0.45086,-0.450864 2.3412,-3.6412 4.20075,-7.089635 z"
       id="path1" />
  </g>
</svg>
