<?xml version="1.0" encoding="UTF-8" standalone="no"?>
<!-- Created with Inkscape (http://www.inkscape.org/) -->

<svg
   version="1.1"
   id="svg1"
   width="512"
   height="512"
   viewBox="0 0 512 512"
   xmlns="http://www.w3.org/2000/svg"
   xmlns:svg="http://www.w3.org/2000/svg">
  <defs
     id="defs1" />
  <g
     id="g1">
    <path
       style="fill:#000000"
       d="m 347.30781,513.5827 c -14.11019,-5.03549 -21.30796,-21.17844 -15.81261,-35.46404 1.04518,-2.71702 10.69337,-16.70685 22.1858,-32.16931 11.18498,-15.04878 20.86431,-28.20686 21.50962,-29.24017 0.9635,-1.5428 -0.55247,-8.35464 -8.47807,-38.09516 -5.30825,-19.91903 -9.86497,-36.7724 -10.12605,-37.45195 -0.35162,-0.91518 -5.07385,-1.24158 -18.21307,-1.25887 -19.50714,-0.0257 -26.33506,-1.24522 -41.92745,-7.48871 -22.98953,-9.20546 -44.30683,-28.89981 -53.3088,-49.25025 l -2.02814,-4.58494 -5.23699,3.55849 c -7.88597,5.35845 -22.16014,11.92307 -32.08395,14.75525 -11.98357,3.42003 -28.84585,5.07817 -39.39004,3.8734 l -8.237,-0.94116 -1.43973,5.05063 c -6.68455,23.44971 -18.63391,69.98409 -18.23671,71.01918 0.27297,0.71135 9.73915,13.71172 21.03597,28.88973 11.29681,15.178 21.23142,28.93409 22.0769,30.56907 7.0298,13.59412 1.99927,29.8586 -11.38907,36.82265 -10.1794,5.29489 -11.50776,5.10524 -65.4837,-9.34932 -25.876491,-6.92963 -49.138001,-13.65833 -51.692261,-14.95267 -5.74759,-2.91253 -12.15917,-10.04064 -13.72138,-15.25485 -2.93974,-9.81199 -0.77117,-20.02892 5.85241,-27.57276 4.06831,-4.63355 5.38085,-5.29073 42.97157,-21.51542 l 30.500001,-13.16424 10.05493,-37.72025 10.05493,-37.72024 -9.08937,-4.50013 c -27.864681,-13.79574 -48.265481,-37.58719 -57.204331,-66.7118 -2.46407,-8.02844 -2.70243,-10.25818 -2.75672,-25.78832 -0.0514,-14.68699 0.24115,-18.03578 2.14984,-24.61271 1.89067,-6.51486 46.284751,-107.702348 49.537411,-112.910691 1.34816,-2.158743 4.98482,-3.976592 7.9553,-3.976592 1.15934,0 9.97234,2.103845 19.58445,4.675211 18.25503,4.883462 22.40266,6.957755 23.62135,11.81342 1.02179,4.07115 -1.81582,9.36608 -5.94369,11.090815 -3.42594,1.431451 -4.26198,1.328781 -16.57918,-2.035989 -7.13421,-1.948901 -13.51436,-3.533106 -14.17811,-3.520455 -1.00321,0.01912 -37.829621,81.134351 -37.736871,83.120661 0.0423,0.90548 11.455541,5.31951 18.030061,6.97305 3.35339,0.8434 10.76895,1.37694 19,1.36702 15.52304,-0.0187 22.55722,-1.49933 33.5,-7.05145 3.85,-1.95339 10.11962,-5.14653 13.93248,-7.09585 11.85381,-6.06023 23.6828,-8.57791 40.56752,-8.63436 15.45261,-0.0517 22.97392,1.1436 35.26125,5.60366 l 6.65783,2.41666 0.54461,-4.11119 c 1.0294,-7.77094 3.53631,-32.5269 3.53631,-34.92143 0,-2.22581 -0.89399,-2.63213 -12.54426,-5.70143 -10.49684,-2.76542 -12.94507,-3.78116 -15,-6.2233 -3.48539,-4.14216 -3.30611,-9.068516 0.46734,-12.841966 3.96455,-3.96455 6.42479,-3.813288 26.11841,1.605826 14.17813,3.901409 16.85288,4.957688 19.30489,7.62364 2.82538,3.07192 2.84111,3.16123 2.13283,12.11007 l -0.71353,9.01534 2.36716,-0.50866 c 1.30194,-0.27976 12.49216,-3.23868 24.86716,-6.57537 75.28422,-20.299037 72.85808,-19.780223 76.89696,-16.443923 2.60216,2.149513 48.13952,103.939943 51.16324,114.366073 3.06859,10.58085 3.79389,31.56279 1.48496,42.95783 -3.82091,18.85696 -12.87922,35.78539 -27.24543,50.91706 -10.28836,10.83654 -20.09314,18.08274 -32.5654,24.06734 l -8.39587,4.02862 9.93196,37.20654 c 5.46257,20.46359 10.44891,37.69563 11.08076,38.29343 0.63185,0.5978 15.69945,7.32461 33.48354,14.94851 25.37794,10.8793 33.31569,14.72509 36.89418,17.875 14.0481,12.36563 11.97307,34.64748 -4.10402,44.06929 -5.31465,3.11458 -95.8028,27.58995 -104.12488,28.16384 -4.23404,0.29198 -7.56796,-0.1458 -11.32725,-1.48738 z m 47.65663,-27.73502 c 19.61884,-5.26837 39.94562,-10.71869 45.17062,-12.11183 5.225,-1.39314 10.75683,-3.1792 12.29296,-3.96904 4.91495,-2.52713 5.55878,-8.72865 1.27526,-12.28365 -0.90207,-0.74865 -15.45845,-7.32077 -32.34751,-14.6047 l -30.70739,-13.24353 -19.85787,26.64581 c -19.08688,25.61128 -21.65545,29.49653 -21.65545,32.75635 0,2.40803 4.69457,6.38945 7.53393,6.38945 1.44366,0 18.67662,-4.31049 38.29545,-9.57886 z m -233.8238,-33.15536 c 1.5216,-1.9344 1.98577,-3.55904 1.58679,-5.55391 -0.53139,-2.65696 -40.02312,-56.71136 -41.43358,-56.71232 -0.36233,-2.4e-4 -14.55249,5.95135 -31.533671,13.22577 -31.93335,13.67965 -33.87512,14.84827 -33.87512,20.38715 0,5.38935 1.87175,6.10736 49.444001,18.96698 24.9183,6.73586 47.18584,12.28606 49.48342,12.33378 3.41661,0.071 4.56912,-0.4112 6.32816,-2.64745 z M 356.94559,318.78116 c 37.74853,-7.83819 68.22709,-43.64756 68.26952,-80.2101 0.009,-8.03796 -0.83798,-18.14452 -1.52119,-18.14452 -0.11772,0 -3.01058,1.13634 -6.42858,2.52519 -15.08755,6.13063 -34.00502,8.5804 -50.13028,6.4918 -13.10298,-1.69716 -23.76325,-5.19898 -35.28868,-11.59206 -10.95668,-6.07761 -18.04232,-8.72746 -27.95122,-10.45301 -8.70589,-1.51608 -24.52462,-0.97337 -25.66962,0.88067 -0.45942,0.74392 -1.12913,4.22044 -1.48825,7.72562 -1.39429,13.60913 -6.64775,27.57655 -15.29786,40.67255 -4.30514,6.51786 -4.4171,6.88011 -3.24515,10.5 3.22097,9.94894 11.51731,22.79291 19.56576,30.29076 20.60342,19.19392 50.56028,27.25692 79.18555,21.3131 z m -171.7843,-38.41089 c 19.76591,-2.46384 36.63583,-10.62723 50.51383,-24.44372 15.08167,-15.01483 20.05217,-27.15694 22.92417,-56 0.87625,-8.8 1.84596,-17.69427 2.15491,-19.76503 l 0.56174,-3.76504 -5.84044,-2.58656 c -13.38921,-5.92971 -30.18114,-8.35346 -44.34044,-6.40013 -11.28868,1.55734 -18.73555,4.1284 -29.03997,10.02622 -10.23123,5.85593 -23.39438,10.4071 -34.87696,12.05874 -16.97228,2.44129 -39.08273,-0.33121 -52.985351,-6.64398 -2.97125,-1.34915 -5.55738,-2.29791 -5.74695,-2.10834 -0.18957,0.18957 -0.72555,4.13355 -1.19107,8.76439 -2.33419,23.22002 5.58955,45.2553 22.725611,63.19805 21.05415,22.04529 46.13798,31.28066 75.14092,27.6654 z m 215.14285,-72.85816 c 10.20643,-2.6116 16.11178,-5.63765 15.38302,-7.88265 -0.30404,-0.9366 -8.61535,-19.70292 -18.46959,-41.70291 -11.66926,-26.05212 -18.38155,-39.9151 -19.24965,-39.75651 -0.73307,0.13391 -22.03286,5.79845 -47.33286,12.58785 l -46,12.34437 -1.63993,14.91214 c -0.90195,8.20168 -1.93574,17.88915 -2.2973,21.5277 l -0.65738,6.61557 12.79731,0.50301 c 18.3611,0.7217 28.39081,3.3671 44.85196,11.83001 19.29848,9.92162 27.95084,12.1169 44.94534,11.40352 5.5,-0.23088 13.45108,-1.30283 17.66908,-2.3821 z M 197.9102,94.917166 c -8.2208,-4.610368 -5.66746,-16.890606 3.77528,-18.157143 7.41693,-0.994819 12.91258,6.231117 10.01355,13.166269 -0.68979,1.65014 -1.95872,3.584531 -2.81984,4.298646 -2.46864,2.047214 -7.9375,2.392341 -10.96899,0.692228 z M 332.41919,78.712955 c -1.21872,-0.22911 -3.35622,-1.771805 -4.75,-3.428211 -3.24265,-3.85367 -3.3581,-8.830628 -0.28413,-12.248081 3.33375,-3.706255 41.77228,-27.610116 44.39836,-27.610116 5.20462,0 10.35164,4.9012 10.35164,9.857239 0,5.008612 -2.50564,7.31716 -19.9289,18.361334 -25.02978,15.865764 -25.16869,15.936031 -29.78697,15.067835 z M 288.49538,67.966374 c -1.14658,-0.803095 -2.65113,-2.827696 -3.34346,-4.499113 -1.11658,-2.695667 -0.65785,-5.711591 4.06107,-26.699458 6.11893,-27.2145987 7.15456,-29.3412557 14.28846,-29.3412557 5.12912,0 8.14201,1.973758 9.54521,6.2531007 0.90072,2.746924 0.22328,6.942548 -4.39938,27.246899 -4.76793,20.942444 -5.79271,24.286646 -8.04389,26.25 -3.01708,2.631319 -8.92838,3.016924 -12.10801,0.789827 z m -40.64969,-9.552807 c -2.12888,-1.674572 -22.88244,-33.414298 -26.59361,-40.671279 -4.54128,-8.8801837 6.40816,-18.41007273 14.15291,-12.3180497 2.0917,1.645328 22.60427,33.0297407 26.59238,40.6865677 4.73586,9.092443 -6.17465,18.577495 -14.15168,12.302761 z"
       id="path1" />
  </g>
</svg>
