<?xml version="1.0" encoding="UTF-8" standalone="no"?>
<!-- Created with Inkscape (http://www.inkscape.org/) -->

<svg
   version="1.1"
   id="svg1"
   width="300"
   height="300"
   viewBox="0 0 300 300"
   sodipodi:docname="L_A logo.svg"
   inkscape:version="1.3.2 (091e20e, 2023-11-25, custom)"
   xmlns:inkscape="http://www.inkscape.org/namespaces/inkscape"
   xmlns:sodipodi="http://sodipodi.sourceforge.net/DTD/sodipodi-0.dtd"
   xmlns="http://www.w3.org/2000/svg"
   xmlns:svg="http://www.w3.org/2000/svg">
  <defs
     id="defs1" />
  <sodipodi:namedview
     id="namedview1"
     pagecolor="#ffffff"
     bordercolor="#666666"
     borderopacity="1.0"
     inkscape:showpageshadow="2"
     inkscape:pageopacity="0.0"
     inkscape:pagecheckerboard="0"
     inkscape:deskcolor="#d1d1d1"
     showgrid="false"
     inkscape:zoom="1.1444828"
     inkscape:cx="105.72461"
     inkscape:cy="137.61675"
     inkscape:window-width="1920"
     inkscape:window-height="1009"
     inkscape:window-x="-8"
     inkscape:window-y="-8"
     inkscape:window-maximized="1"
     inkscape:current-layer="g1" />
  <g
     inkscape:groupmode="layer"
     inkscape:label="Image"
     id="g1">
    <path
       style="fill:#000000;stroke-width:6.6;stroke-dasharray:none;stroke:#000000;stroke-opacity:1"
       d="m 63.48386,294.35244 c -33.997851,-10.95468 -28.673521,-49.69358 9.76505,-71.04888 34.71726,-19.28784 60.307,12.48315 30.31693,37.64002 -7.206443,6.04505 -23.493937,13.69312 -21.176817,9.94394 0.31501,-0.5097 2.09887,-1.21302 3.96413,-1.56295 15.196387,-2.85086 29.320387,-22.8881 25.675347,-36.42473 -8.33412,-30.95059 -63.397681,-6.07518 -64.880981,29.31051 -0.99395,23.71151 12.97098,34.57111 38.134944,29.65502 26.708967,-5.21793 38.323217,-13.28474 64.258217,-44.6313 12.287,-14.85078 14.38813,-17.66117 25.04556,-33.5 13.55864,-20.15053 14.99834,-22.34454 14.99834,-23.53023 0,-1.31549 -14.19215,-1.37885 -48.22955,-2.41023 -14.37086,-0.43546 -26.57891,-1.0699 -27.129,-1.40987 -0.55009,-0.33998 -4.08367,1.0182 -7.85239,3.01816 -28.412117,15.07759 -63.231091,20.37214 -67.422871,10.25229 -4.2797,-10.3321 23.00479,-18.01712 59.312348,-16.70607 l 13.099493,0.47302 4.46176,-4.59081 c 11.88804,-12.23189 33.81437,-50.17086 40.98938,-70.92361 1.07869,-3.11996 3.15163,-8.314543 4.60653,-11.543523 l 2.64528,-5.870867 -6.79085,0.87087 c -20.72947,2.65839 -35.26113,0.49283 -46.29084,-6.898399 -27.483907,-18.41754 -6.71071,-57.22744 30.31205,-56.63105 9.95829,0.160415 12.59877,1.683525 3.12161,1.80064 -42.26768,0.522324 -57.526887,41.27605 -21.67075,57.87743 11.22419,5.196799 41.01522,2.975609 44.18965,-3.29474 31.33157,-61.888279 87.56178,-100.587291 91.7798,-63.165117 1.89041,16.771631 -45.29865,56.689287 -77.07256,65.196397 -8.33376,2.231269 -7.73881,1.38314 -17.13654,24.428659 -7.8222,19.18195 -9.45979,22.39024 -18.38046,36.01011 -5.60251,8.55379 -12.35268,16.88025 -23.88234,29.45932 -8.55799,9.33691 -14.30527,8.14715 53.8002,11.13732 l 14.56067,0.63929 3.20884,-4.34449 c 5.73349,-7.76266 11.65848,-16.15886 18.03635,-25.55902 9.32988,-13.75102 24.31498,-30.30284 33.98256,-37.5355 16.11444,-12.05578 17.06652,-0.77138 2.00384,23.75002 -5.34035,8.69386 -15.09417,24.86831 -20.99568,34.81645 -3.63454,6.12674 -3.65077,6.06542 1.39276,5.26299 8.48393,-1.34979 14.57887,-3.72533 21.84154,-8.51287 8.25923,-5.44446 10.48612,-5.67043 4.47757,-0.45434 -5.59888,4.86046 -14.42785,9.00177 -23.36097,10.95768 -9.21009,2.01655 -9.64586,2.32193 -12.61177,8.83825 -20.08985,44.13885 -20.59595,74.31653 -1.21278,72.31601 21.20797,-2.18885 43.2036,-36.84235 30.06012,-47.35887 -7.84797,-6.27942 -19.97632,0.60877 -24.59265,13.96716 -1.21817,3.52506 -1.79304,4.37293 -1.80865,2.66754 -0.11984,-13.09689 16.41392,-24.2873 26.65676,-18.04187 15.27636,9.31456 -6.16768,46.69614 -29.29015,51.05904 -26.951,5.08529 -29.28561,-26.84474 -5.55356,-75.955 1.1795,-2.4408 2.14454,-4.64235 2.14454,-4.89232 0,-0.24998 -5.0625,-0.14994 -11.25,0.22231 -12.75899,0.76759 -11.42602,-2.21599 -18.77141,11.60784 -1.62177,3.05214 -4.60458,7.75 -6.51718,10.5 -1.9126,2.75 -5.16134,7.42117 -7.21943,10.38038 -2.05809,2.95921 -5.09198,7.0806 -6.74198,9.15864 -1.65,2.07804 -5.025,6.34862 -7.5,9.49017 -28.88041,36.6583 -43.05516,47.42934 -68.995807,52.42817 -14.159793,2.72863 -19.968813,3.12239 -24.504203,1.66101 z m 2.77827,-93.16027 c 17.724553,-3.10041 45.52314,-14.1162 39.22174,-15.54245 -13.391553,-3.03103 -54.381601,1.5895 -60.612461,6.83242 -9.18075,7.72509 1.6979,12.15474 21.390721,8.71003 z M 215.5059,186.2692 c 0.56213,-0.16357 2.97328,-3.5687 5.35813,-7.56696 2.38485,-3.99826 9.12493,-14.62676 14.97796,-23.6189 18.53261,-28.47204 22.93668,-37.35434 18.51688,-37.34553 -3.57149,0.007 -8.92866,4.2227 -20.54342,16.16568 -10.20921,10.49772 -16.49684,18.48322 -30.02522,38.13304 -1.8185,2.64135 -4.76886,6.77685 -6.55636,9.19001 -1.7875,2.41315 -3.63227,5.63134 -3.63227,6.2171 0,0.93666 18.46006,-0.17218 21.9043,-1.17444 z M 184.25717,82.812071 c 46.61838,-16.03908 89.31646,-65.606203 60.48425,-70.214652 -20.18207,-3.2258377 -41.06896,17.189569 -66.12128,64.628702 -4.32268,8.18543 -3.70308,8.79942 5.63703,5.58595 z"
       id="path2"
       sodipodi:nodetypes="sssssssssssssssscssscsssssssssssscssssssssssssssssssssssssssssssssscsssssssss" />
  </g>
</svg>
