<?xml version="1.0" encoding="UTF-8" standalone="no"?>
<!-- Created with Inkscape (http://www.inkscape.org/) -->

<svg
   version="1.1"
   id="svg1"
   width="510.37985"
   height="421.91983"
   viewBox="0 0 510.37985 421.91983"
   xmlns="http://www.w3.org/2000/svg"
   xmlns:svg="http://www.w3.org/2000/svg">
  <defs
     id="defs1" />
  <g
     id="g1"
     transform="translate(-3.8425658,-23.845484)">
    <path
       style="fill:#000000"
       d="M 149.58801,444.84377 C -24.381563,430.5495 -51.070301,183.85775 115.58598,130.55316 l 9.64967,-3.08642 -17.53111,-19.9972 C 73.951756,68.968745 75.138266,76.648382 98.517956,48.009669 120.38581,21.222875 112.92785,23.969312 163.75142,23.987073 c 51.64542,0.01805 42.24384,-4.135425 70.77316,31.26649 16.01413,19.871875 16.98123,15.450765 -10.18436,46.557847 -12.15285,13.91613 -21.94035,25.42811 -21.75,25.58217 0.19036,0.15407 4.94647,1.74086 10.56915,3.52622 11.80886,3.74963 28.79251,11.88828 38.52695,18.46229 l 6.75,4.55852 6.75,-4.56218 c 107.04923,-72.352244 254.34512,11.44501 248.88882,141.5939 -5.21329,124.3523 -145.70886,196.83497 -248.82499,128.37059 l -6.68616,-4.43931 -7.2875,4.67117 c -22.98483,14.7329 -47.13165,22.91018 -74.91257,25.36901 -12.54735,1.11054 -12.0186,1.11252 -26.77591,-0.10002 z m 38.99894,-16.8281 c 14.97124,-2.58108 27.79516,-6.92922 41.84937,-14.18962 17.27707,-8.92534 16.55623,-7.77749 9.38666,-14.94706 l -6.05206,-6.05206 -5.4173,3.21136 C 143.44084,446.37427 34.756776,383.38882 34.979056,283.97233 c 0.0912,-40.80859 21.88941,-87.82461 34.12391,-73.60115 3.22271,3.74661 3.0669,4.50145 -3.18764,15.44291 -56.0596524,98.06877 45.102134,209.22845 146.563614,161.04861 12.85428,-6.10396 12.35394,-4.67904 5.39285,-15.35829 -34.22534,-52.50631 -33.83953,-124.04318 0.94874,-175.9145 5.74302,-8.56318 5.9118,-7.68881 -2.31905,-12.014 -39.63216,-20.82611 -86.67518,-16.36938 -124.090154,11.75596 -12.61155,9.48027 -22.4849,0.29353 -11.07903,-10.30858 45.560174,-42.34962 126.552094,-38.64627 173.141564,7.91689 29.1647,29.14822 48.97569,86.03215 29.96246,86.03215 -5.28767,0 -6.75543,-2.22378 -8.61572,-13.05355 -2.51272,-14.62784 -9.88838,-34.23839 -15.94225,-42.38758 -5.5737,-7.50282 -20.46254,36.5705 -20.4182,60.44113 0.0377,20.2967 12.79721,63 18.82406,63 2.97924,0 14.45734,-27.8635 17.17219,-41.6861 2.01629,-10.26593 9.2947,-13.83281 14.34986,-7.03234 4.48608,6.03491 -5.25633,36.53769 -18.0805,56.60871 l -3.44406,5.39027 5.29315,5.35973 c 7.32499,7.41713 11.05649,4.17436 21.93284,-19.06019 C 365.33996,197.37346 170.74515,65.204945 57.285286,184.7521 c -95.451072,100.57218 -5.686,266.8806 131.301664,243.26357 z m 196.86343,-1.35346 c 133.45804,-31.46056 154.93106,-211.7017 32.48594,-272.68192 -46.29425,-23.05551 -115.70365,-18.48684 -146.44282,9.63917 -0.24355,0.22284 2.17499,3.05058 5.37453,6.28386 l 5.81734,5.87868 10.12548,-5.34896 c 84.06172,-44.4071 185.09028,13.53859 189.23872,108.53929 1.74498,39.96081 -19.51433,90.25631 -31.13658,73.66323 -2.33524,-3.33402 -1.79948,-5.90089 3.30747,-15.84638 49.73288,-96.85208 -52.9435,-202.45408 -150.51066,-154.79924 -11.95516,5.83928 -11.53687,4.83377 -5.65769,13.59997 34.76852,51.84188 35.15465,123.438 0.94874,175.9145 -6.96109,10.67925 -7.46143,9.25433 5.39285,15.35829 40.13808,19.05991 86.35555,13.39729 121.48709,-14.88475 10.81968,-8.71019 13.17675,-9.47531 17.10098,-5.55107 10.72185,10.72184 -30.77102,38.59957 -67.04983,45.04865 C 266.28486,430.96685 184.0903,308.18691 244.44452,215.0633 l 4.15375,-6.40902 -5.97442,-5.97442 -5.97442,-5.97442 -3.56586,4.88345 c -76.36076,104.5761 25.46336,254.98874 152.36681,225.07332 z M 135.34972,101.63892 128.20752,80.972331 H 116.69376 105.18 l 2.37816,2.98202 c 6.70998,8.41376 34.41607,39.617109 34.65596,39.030479 0.15279,-0.37362 -2.93619,-9.97928 -6.8644,-21.34591 z m 68.94059,0.14038 c 9.43031,-10.831169 17.14601,-19.943669 17.14601,-20.249999 0,-0.30633 -5.08506,-0.55697 -11.30013,-0.55697 h -11.30013 l -6.94987,20.226319 c -3.82243,11.12448 -7.10385,20.91198 -7.29206,21.75 -0.45195,2.01247 -1.00383,2.60562 19.69618,-21.16935 z m -28.96839,0.60689 c 3.91292,-11.322379 7.1144,-20.772379 7.1144,-20.999999 0,-0.22762 -8.5875,-0.41386 -19.08333,-0.41386 -10.49584,0 -18.93334,0.36609 -18.75,0.81352 0.18333,0.44744 3.46077,9.89744 7.2832,20.999999 l 6.94987,20.18648 h 4.68573 4.68573 z m -47.3436,-37.481819 c 0.36302,-0.587379 2.36085,-6.437379 4.43963,-13 l 3.77958,-11.93204 h -5.75071 -5.75072 l -10.12989,12.437381 c -5.57144,6.840559 -10.12989,12.690559 -10.12989,13 0,1.081028 22.86491,0.590221 23.542,-0.505341 z m 54.49615,0.31796 c 0.021,-0.4125 -1.66652,-6.273789 -3.75,-13.025088 l -3.78815,-12.275087 -11.45031,0.275087 -11.4503,0.275088 -3.78333,12 c -2.08083,6.6 -3.79069,12.3375 -3.79969,12.75 -0.009,0.4125 8.53363,0.75 18.98363,0.75 10.45,0 19.01717,-0.3375 19.03815,-0.75 z m 39.96185,-0.0048 c 0,-0.415165 -4.40598,-6.152665 -9.79107,-12.75 l -9.79106,-11.995154 -5.70894,-0.299904 c -3.13991,-0.164947 -5.70893,0.09824 -5.70893,0.584855 0,1.030975 6.99378,23.353132 7.66517,24.465049 0.59367,0.983193 23.33483,0.97847 23.33483,-0.0048 z"
       id="path1" />
  </g>
</svg>
